M48
; DRILL file {KiCad 7.0.1-0} date 2023 May 28, Sunday 09:45:29
; FORMAT={-:-/ absolute / metric / decimal}
; #@! TF.CreationDate,2023-05-28T09:45:29-06:00
; #@! TF.GenerationSoftware,Kicad,Pcbnew,7.0.1-0
; #@! TF.FileFunction,MixedPlating,1,2
FMAT,2
METRIC
; #@! TA.AperFunction,Plated,PTH,ViaDrill
T1C0.300
; #@! TA.AperFunction,Plated,PTH,ViaDrill
T2C0.350
; #@! TA.AperFunction,Plated,PTH,ComponentDrill
T3C0.550
; #@! TA.AperFunction,Plated,PTH,ComponentDrill
T4C0.850
; #@! TA.AperFunction,Plated,PTH,ComponentDrill
T5C1.000
; #@! TA.AperFunction,NonPlated,NPTH,ComponentDrill
T6C0.800
; #@! TA.AperFunction,NonPlated,NPTH,ComponentDrill
T7C0.900
; #@! TA.AperFunction,NonPlated,NPTH,ComponentDrill
T8C2.200
%
G90
G05
T1
X82.8Y-81.25
X85.65Y-91.7
X87.65Y-86.125
X89.0Y-86.625
X90.0Y-89.3
X90.025Y-93.625
X90.025Y-96.875
X91.0Y-85.125
X94.45Y-90.75
X94.775Y-87.25
X96.275Y-96.0
X99.25Y-92.575
X103.95Y-87.975
X109.725Y-95.625
X110.025Y-91.175
X110.05Y-92.15
X110.625Y-95.625
X113.95Y-96.025
X116.1Y-87.35
X119.875Y-94.4
T2
X94.475Y-100.0
X95.975Y-100.0
X97.575Y-97.7
X99.45Y-97.7
X119.3Y-93.4
X119.3Y-95.275
T5
X90.42Y-74.25
X92.95Y-102.75
X92.96Y-74.25
X95.49Y-102.75
X95.5Y-74.25
X98.03Y-102.75
X98.04Y-74.25
X100.57Y-102.75
X104.92Y-74.25
X107.46Y-74.25
X110.0Y-74.25
X112.54Y-74.25
T6
X118.45Y-86.15
X118.45Y-91.15
T7
X80.645Y-83.0
X80.645Y-86.0
T8
X82.0Y-75.0
X82.0Y-102.0
X120.0Y-75.0
X120.0Y-102.0
T3
G00X120.875Y-84.775
M15
G01X121.525Y-84.775
M16
G05
G00X120.875Y-92.525
M15
G01X121.525Y-92.525
M16
G05
T4
G00X117.125Y-84.925
M15
G01X117.675Y-84.925
M16
G05
G00X117.125Y-92.375
M15
G01X117.675Y-92.375
M16
G05
T0
M30
